<svg xmlns="http://www.w3.org/2000/svg" viewBox="0 0 461.18 183.24"><defs><style>.cls-1{fill:#0073a5;}</style></defs><title>Asset 18</title><g id="Layer_2" data-name="Layer 2"><g id="Layer_1-2" data-name="Layer 1"><path class="cls-1" d="M222.54,110v2.07a20.33,20.33,0,0,1-3.08,10.64,90,90,0,0,1-6.86,9.85,65,65,0,0,0-6.39,5.21,12.24,12.24,0,0,1-6.87,3.31A106.8,106.8,0,0,1,174,133.29a74.72,74.72,0,0,0-25.81-6.39q-7.57-.47-14.67-1.42a115.13,115.13,0,0,0-15.16-1h-5.2A202.64,202.64,0,0,1,97.3,145.58Q89,155.17,80,164.72l1.42,1.44q8,1,17,2.16a135.77,135.77,0,0,0,18,1.19,128.79,128.79,0,0,0,17.28-1.18q8.76-1.19,16.81-2.13A4.14,4.14,0,0,0,151,165v-2.6a21.38,21.38,0,0,0-6.86-8q-5-3.78-5-8.52a10.77,10.77,0,0,1,.23-2.13,10.85,10.85,0,0,0,.24-2.14,5.23,5.23,0,0,1,2.61-2.6,8.93,8.93,0,0,1,3.55-.71h1.89l2.84.47q6.15,7.59,12.31,15.39a144.59,144.59,0,0,1,11.37,16.81,6.2,6.2,0,0,0,.23,1.42,7.79,7.79,0,0,1,.24,1.9,10.92,10.92,0,0,1-.24,2.13,10.62,10.62,0,0,0-.23,2.13,5.19,5.19,0,0,1-1.66,2.37,22.32,22.32,0,0,0-2.13,1.89h-2.37a9.09,9.09,0,0,1-2.84-.47,7.73,7.73,0,0,0-2.37-.48q-11.83,0-24.15.48t-24.62.47c-4.73,0-9.47-.25-14.2-.72s-9.32-.88-13.73-1.19H81.44c-3.16,0-6.39.07-9.71.24a29.36,29.36,0,0,0-9.7,2.14,29.19,29.19,0,0,1-5.92-1.43,8.91,8.91,0,0,1-4.5-4.29v-2.39a13.73,13.73,0,0,1,6.16-11.93,46.74,46.74,0,0,0,9.94-9.07q6.63-7.15,13-14.56a119.28,119.28,0,0,0,11.13-15H81.92A255.46,255.46,0,0,0,44,127.37a158.45,158.45,0,0,0-35.52,9.47,12.13,12.13,0,0,0-4.5-1q-2.13,0-3.55-3.31A1.62,1.62,0,0,1,0,131.39v-1.18a10.27,10.27,0,0,1,2.37-6.7,26.46,26.46,0,0,1,4.73-4.66l3.79-1.75,86.18-4.81,54.45.44h1.42q8.52,0,17.76.87t18.22.87A86,86,0,0,0,205,113a39.86,39.86,0,0,0,14.21-5.47h2.84A8.09,8.09,0,0,1,222.54,110ZM181.82,0a6.21,6.21,0,0,1,1,2.46,16.37,16.37,0,0,1,.47,3.7v1.7a1.88,1.88,0,0,1-.94,1.71,10,10,0,0,1-3.08,5.91,10.41,10.41,0,0,1-5,3l-51.62-.95h-4c-.47,0-.71.07-.71.21v4.13q16.38.23,32.52.78t32.05,1.51q2.34-.46,5.38-.95a36.29,36.29,0,0,1,5.39-.47,9.75,9.75,0,0,1,4,.74,7.56,7.56,0,0,1,3.07,3,4.28,4.28,0,0,1,.47,2.23v2.22a23.59,23.59,0,0,1-1.66,9.17,20.26,20.26,0,0,0-1.65,7.77q-1.65,9-2.46,18.47t-2.05,18.47a3.71,3.71,0,0,1-1.63,2.6,5,5,0,0,1-2.46.71,6.06,6.06,0,0,1-2-.47,6.94,6.94,0,0,0-2.46-.48l-2-2.84v-7.1q0-8.52.23-17.28t.71-16.81q-12.57-1.43-26.12-2.37T130,39.77H118.87a18,18,0,0,0-.73,4c-.17,1.74-.24,3.55-.24,5.44V80a4.83,4.83,0,0,1-1.75,3.55,16.76,16.76,0,0,1-3.49,2.61h-1.75a3.3,3.3,0,0,0-1.46.47,3.17,3.17,0,0,1-1.46.47,1.79,1.79,0,0,1-1.16-.47,2.77,2.77,0,0,0-1.75-.47l-2.33-2.85V39.77H90q-12.78,0-25.56.48a153.71,153.71,0,0,0-24.63,2.84,209.9,209.9,0,0,0-.71,22.49q.24,11.61-5,20.12c-.63.32-1.34.64-2.13,1a5.72,5.72,0,0,1-2.13.47,5.64,5.64,0,0,1-2.13-.47,8.56,8.56,0,0,0-3.08-.47,45.49,45.49,0,0,1-.71-5.45q-.24-3.08-.24-6.39V63.45a17.86,17.86,0,0,0-.47-4.26,69.43,69.43,0,0,0-1.42-14A70.14,70.14,0,0,1,20.36,31a16.2,16.2,0,0,1,.24-2.58,18.59,18.59,0,0,0,.23-2.58,6,6,0,0,1,3.32-2.58,14.49,14.49,0,0,1,3.79-.52h5.2l9.47,1.42,54.46-1.42h5.68V17.52H60.13a93.62,93.62,0,0,0-13.25.95,9,9,0,0,0-4-.95c-1.42,0-2.45-.95-3.08-2.84,0-1.9.08-3.79.24-5.68a9,9,0,0,1,1.66-4.74,6.67,6.67,0,0,1,3.55-3.08,12.83,12.83,0,0,1,4-.71h8L99,1Zm-18,89.49h8a4.38,4.38,0,0,1,1.66,2.65,11.55,11.55,0,0,0,.71,2.64,10.27,10.27,0,0,1-2.13,4.41,14.2,14.2,0,0,1-3.56,3.23l-92.8,1.18a55,55,0,0,1-10.42,1.47,63.25,63.25,0,0,0-10.89,1.47,8.88,8.88,0,0,1-3.79-.88,7.93,7.93,0,0,1-3.31-3.24v-2.35a12.33,12.33,0,0,1,.95-4.7,8.67,8.67,0,0,1,2.36-3.53,3.63,3.63,0,0,1,2.61-2,19.83,19.83,0,0,1,3.55-.3h107ZM91.62,52.32a34.25,34.25,0,0,0,.71,3.55c0,2.53-1,3.63-3.08,3.32a8,8,0,0,0-5.44.94h-7.1a89.82,89.82,0,0,0-9.24.48,41.33,41.33,0,0,0-8.76,1.89,12.19,12.19,0,0,0-4.26-1.18,4.88,4.88,0,0,1-3.79-2.61,2.17,2.17,0,0,0-.23-.94,3.1,3.1,0,0,1-.24-1.42,10.81,10.81,0,0,1,.71-3.79,3.59,3.59,0,0,1,2.6-2.37l1.9-.95L90,50.19A2.41,2.41,0,0,1,91.62,52.32Zm.71,20.36a6,6,0,0,0,.47,2.61c0,2.84-.94,4.1-2.84,3.78a9.59,9.59,0,0,0-5.2.48H77.65q-4.74,0-9.47.47a51.23,51.23,0,0,0-9.47,1.89,12.41,12.41,0,0,0-4.26-1.18,5.14,5.14,0,0,1-3.79-2.13,1.93,1.93,0,0,0-.23-1.18.93.93,0,0,1-.24-.71,10.81,10.81,0,0,1,.71-3.79,3.59,3.59,0,0,1,2.6-2.37l1.9-1,35.51.48A3,3,0,0,1,92.33,72.68ZM169,51.37a14.48,14.48,0,0,0,.47,3.56q0,3.8-3.08,3.31a10.32,10.32,0,0,0-5.44.47h-6.63c-3.16,0-6.39.17-9.71.48a75,75,0,0,0-9.23,1.42,31.82,31.82,0,0,0-4-.71,5,5,0,0,1-3.55-2.13,4.22,4.22,0,0,0-.23-1.19,3.52,3.52,0,0,1-.24-1.18,9,9,0,0,1,.71-3.55,5.83,5.83,0,0,1,2.13-2.61l2.37-.94,34.09.47C168.25,49.41,169,50.27,169,51.37Zm0,21.31a5.86,5.86,0,0,0,.47,2.61q0,4.26-3.08,3.78a10.31,10.31,0,0,0-5.44.48h-6.63c-3.16,0-6.39.16-9.71.47a42.27,42.27,0,0,0-9.23,1.89,12.17,12.17,0,0,0-4-1.18,5,5,0,0,1-3.55-2.13,1.93,1.93,0,0,0-.23-1.18.93.93,0,0,1-.24-.71,10.81,10.81,0,0,1,.71-3.79,3.6,3.6,0,0,1,2.13-2.37l2.37-1,34.09.48C168.25,70.71,169,71.58,169,72.68Z"/><path class="cls-1" d="M295,6.63a27.37,27.37,0,0,1-.48,5,16.54,16.54,0,0,1-1.42,4.5l-6.15,16.57a36.73,36.73,0,0,0,5.44,1.66,26.54,26.54,0,0,0,5.92.71h15l44.17-.95A14.06,14.06,0,0,1,358.91,37a10,10,0,0,1,.47,3.12,20.07,20.07,0,0,1-.23,3.13,12.4,12.4,0,0,1-.71,2.55,14.73,14.73,0,0,1-4.5,5.83A13.24,13.24,0,0,1,349,54a76.78,76.78,0,0,0-9.24-1.42c-3.31-.31-6.55-.48-9.7-.48h-8v.46l.47.44-2.09,35.87,44.23.45a7.18,7.18,0,0,1,1.19,2.47,10.41,10.41,0,0,1,.23,2,7.4,7.4,0,0,1-.23,1.8c-.17.6-.4,1.35-.72,2.23a10.68,10.68,0,0,1-4.49,3.82,13.6,13.6,0,0,1-5.45,1.12q-3.31,0-7.57-.24c-2.84-.15-5.53-.24-8.05-.24H319.81q-2.16,12.33-5.14,25.34A59.36,59.36,0,0,1,303,151.52,68.58,68.58,0,0,1,285.28,170a65.12,65.12,0,0,1-21.54,10,26.41,26.41,0,0,1-14-6.39,83.4,83.4,0,0,1-11.6-12.08,8.56,8.56,0,0,1-.71-1.89,5.8,5.8,0,0,1-.24-1.42v-3.79a5.46,5.46,0,0,1,3.08-1h7.34a7.68,7.68,0,0,0,2.37-.47,17.16,17.16,0,0,0,2.36-.95,66.65,66.65,0,0,0,28.18-7.57q13.95-7.11,20.12-23.21,1.43-4.26,2.84-9.23a55.52,55.52,0,0,0,1.89-9.23H253.79a21.78,21.78,0,0,1-5.21-.7,5,5,0,0,1-3.78-3.14,1.84,1.84,0,0,0-.24-1,1.24,1.24,0,0,1-.24-.71,4.79,4.79,0,0,1,2.13-4,40.59,40.59,0,0,1,4-2.62,15.14,15.14,0,0,1,3.79-.86c1.25-.12,2.52-.18,3.78-.18h14.21l34.57-.86V78.74a130.66,130.66,0,0,0-.72-13.11q-.71-7.09-1.65-13.55a86.73,86.73,0,0,0-11.37.7c-3.47.47-6.94,1-10.41,1.74l-4.26-1q-3.81,3.81-7.34,7.64a31.16,31.16,0,0,1-9.24,6.59h-5.68a19.48,19.48,0,0,1-9-4.26q-4.26-3.45-8-6.7l-.48-.4a10.66,10.66,0,0,1,.71-3.86c.48-1.21,1.66-1.83,3.55-1.83q16.57-1,27.7-17.07T290.25,4.26H294a1.41,1.41,0,0,1,.95.47ZM356.78,138.5a36.42,36.42,0,0,0,21.54,6.86,8,8,0,0,1,1.9-.47,5.5,5.5,0,0,1,.94,2.13,10.58,10.58,0,0,1,.48,2.6,11.18,11.18,0,0,1-.48,2.13,15.57,15.57,0,0,1-.94,2.61,25,25,0,0,1-10.89,10.18A127.88,127.88,0,0,1,355.59,170a20.64,20.64,0,0,1-9.94-11.83A88.88,88.88,0,0,0,339,143.47a13.92,13.92,0,0,0-3.55-7.34c-2.05-2.37-3.08-4.65-3.08-6.87a7.68,7.68,0,0,1,.48-2.36,11.26,11.26,0,0,1,1.42-2.84h3.31Q347.07,131.64,356.78,138.5Zm88.31-94.94h.47a19.9,19.9,0,0,0,5.92-1,20.43,20.43,0,0,1,5.92-.94h3.78V108.9q0,5.68-.47,10.89a14.92,14.92,0,0,1-4.5,3.08,12,12,0,0,1-5,1.19h-39.3q-7.57,0-15.39.71a38.86,38.86,0,0,0-14.91,4.49c-1.27-.31-2.69-.71-4.26-1.18s-2.53-1.81-2.84-4q.46-10.84,1.18-21.66t.71-21.19V67.56q-.48-3.77-1.18-8.23a54.8,54.8,0,0,1-.71-8.72v-3a3.21,3.21,0,0,1,.47-2.13,6.16,6.16,0,0,1,2.84-2.82,8.52,8.52,0,0,1,3.79-.94h9.94Zm-6.16,15.15h-8.05q-9,0-17.75.24t-17.29,1.17l-1.89.94-1.42,49.74,1.89,1.42,12.79-1q6.62-.47,13.25-.47a105.85,105.85,0,0,1,12.31.71q6.15.7,11.37,1.66l1.89-1V58.71Z"/></g></g></svg>