<svg xmlns="http://www.w3.org/2000/svg" viewBox="0 0 462.18 184.26"><defs><style>.cls-1{fill:none;stroke:rgba(255,255,255,0.8);}</style></defs><title>txtLine</title><g id="Layer_2" data-name="Layer 2"><g id="Layer_1-2" data-name="Layer 1"><path class="cls-1" d="M223,110.52v2.07A20.33,20.33,0,0,1,220,123.23a90,90,0,0,1-6.86,9.85,66.44,66.44,0,0,0-6.39,5.21,12.24,12.24,0,0,1-6.87,3.31,106.8,106.8,0,0,1-25.33-7.81,75.18,75.18,0,0,0-25.81-6.39q-7.57-.47-14.67-1.42a115.13,115.13,0,0,0-15.16-1h-5.2A203.86,203.86,0,0,1,97.8,146.09q-8.28,9.57-17.28,19.14l1.42,1.43q8,1,17,2.16A135.77,135.77,0,0,0,117,170a128.79,128.79,0,0,0,17.28-1.18q8.76-1.17,16.81-2.13a4.24,4.24,0,0,0,.47-1.18v-2.61a21.38,21.38,0,0,0-6.86-8q-5-3.78-5-8.52a10.77,10.77,0,0,1,.23-2.13,10.84,10.84,0,0,0,.24-2.13,5.26,5.26,0,0,1,2.61-2.61,8.93,8.93,0,0,1,3.55-.71h1.89l2.84.48q6.15,7.57,12.31,15.39a143.61,143.61,0,0,1,11.37,16.8,6.12,6.12,0,0,0,.23,1.42,7.79,7.79,0,0,1,.24,1.9,10.84,10.84,0,0,1-.24,2.13,10.62,10.62,0,0,0-.23,2.13,5.14,5.14,0,0,1-1.66,2.37,25.45,25.45,0,0,0-2.13,1.89h-2.37a9.09,9.09,0,0,1-2.84-.47,7.73,7.73,0,0,0-2.37-.48q-11.83,0-24.15.48t-24.62.47a140.66,140.66,0,0,1-14.2-.72q-7.11-.72-13.73-1.19H81.94c-3.16,0-6.39.08-9.71.24a29.38,29.38,0,0,0-9.7,2.15,29.87,29.87,0,0,1-5.92-1.43,8.93,8.93,0,0,1-4.5-4.3v-2.38a13.76,13.76,0,0,1,6.16-11.94,46.74,46.74,0,0,0,9.94-9.07q6.63-7.15,13-14.56a119.28,119.28,0,0,0,11.13-15H82.42a255.46,255.46,0,0,0-37.88,2.84A159.52,159.52,0,0,0,9,137.34a12.11,12.11,0,0,0-4.5-.94q-2.13,0-3.55-3.32A1.61,1.61,0,0,1,.5,131.9v-1.19A10.28,10.28,0,0,1,2.87,124a26.46,26.46,0,0,1,4.73-4.66l3.79-1.75,86.18-4.81,54.45.44h1.42q8.52,0,17.76.87t18.22.88a86,86,0,0,0,16.1-1.53A40,40,0,0,0,219.73,108h2.84A8,8,0,0,1,223,110.52ZM182.32.5a6.21,6.21,0,0,1,1,2.47,16.36,16.36,0,0,1,.47,3.69V8.37a1.88,1.88,0,0,1-.94,1.7A10,10,0,0,1,179.72,16a10.46,10.46,0,0,1-5,3L123.13,18h-4c-.47,0-.71.08-.71.22v4.12q16.38.23,32.52.78T183,24.65q2.34-.46,5.38-.95a36.29,36.29,0,0,1,5.39-.47,9.75,9.75,0,0,1,4,.74,7.66,7.66,0,0,1,3.07,3,4.22,4.22,0,0,1,.47,2.22v2.22a23.64,23.64,0,0,1-1.66,9.18A20.19,20.19,0,0,0,198,48.33q-1.65,9-2.46,18.46t-2.05,18.47a3.71,3.71,0,0,1-1.63,2.6,4.84,4.84,0,0,1-2.46.71,5.83,5.83,0,0,1-2-.47,6.92,6.92,0,0,0-2.46-.47l-2-2.85v-7.1q0-8.52.23-17.28t.71-16.81q-12.57-1.43-26.12-2.37t-27.12-.94H119.37a17.76,17.76,0,0,0-.73,4c-.17,1.74-.24,3.55-.24,5.45V80.52a4.83,4.83,0,0,1-1.75,3.55,16.76,16.76,0,0,1-3.49,2.61h-1.75a3.3,3.3,0,0,0-1.46.47,3.21,3.21,0,0,1-1.46.48,1.8,1.8,0,0,1-1.16-.48,2.77,2.77,0,0,0-1.75-.47l-2.33-2.84V40.28H90.46q-12.78,0-25.56.47a154.85,154.85,0,0,0-24.63,2.84,210,210,0,0,0-.71,22.49q.24,11.61-5,20.13c-.63.31-1.34.63-2.13.94a5.75,5.75,0,0,1-2.13.48,5.67,5.67,0,0,1-2.13-.48,8.56,8.56,0,0,0-3.08-.47,45.49,45.49,0,0,1-.71-5.45q-.24-3.08-.24-6.39V64a17.86,17.86,0,0,0-.47-4.26,69.43,69.43,0,0,0-1.42-14,70.07,70.07,0,0,1-1.42-14.17,16.3,16.3,0,0,1,.24-2.58,18.46,18.46,0,0,0,.23-2.58,6,6,0,0,1,3.32-2.58,14.49,14.49,0,0,1,3.79-.52h5.2l9.47,1.42,54.46-1.42h5.68V18H60.63A93.62,93.62,0,0,0,47.38,19a9,9,0,0,0-4-.95c-1.42,0-2.45-.95-3.08-2.84,0-1.89.08-3.79.24-5.68a9,9,0,0,1,1.66-4.74,6.6,6.6,0,0,1,3.55-3.07,12.55,12.55,0,0,1,4-.71h8l41.67.57ZM164.33,90h8A4.43,4.43,0,0,1,174,92.64a11.55,11.55,0,0,0,.71,2.64,10.27,10.27,0,0,1-2.13,4.41,14.45,14.45,0,0,1-3.56,3.24l-92.8,1.17a54.16,54.16,0,0,1-10.42,1.47A64.25,64.25,0,0,0,55,107a8.88,8.88,0,0,1-3.79-.88,8,8,0,0,1-3.31-3.23v-2.36a12.33,12.33,0,0,1,.95-4.7,8.62,8.62,0,0,1,2.36-3.52,3.62,3.62,0,0,1,2.61-2.06,20.79,20.79,0,0,1,3.55-.3h107ZM92.12,52.82a33.74,33.74,0,0,0,.71,3.55c0,2.54-1,3.64-3.08,3.32a7.92,7.92,0,0,0-5.44,1h-7.1a89.85,89.85,0,0,0-9.24.47A42,42,0,0,0,59.21,63,12.19,12.19,0,0,0,55,61.82a4.89,4.89,0,0,1-3.79-2.6,2.24,2.24,0,0,0-.23-.95,3.1,3.1,0,0,1-.24-1.42,10.85,10.85,0,0,1,.71-3.79A3.59,3.59,0,0,1,54,50.69l1.9-.94,34.56.94A2.41,2.41,0,0,1,92.12,52.82Zm.71,20.36a6,6,0,0,0,.47,2.61c0,2.84-.94,4.1-2.84,3.79a9.59,9.59,0,0,0-5.2.47H78.15q-4.74,0-9.47.47a50.46,50.46,0,0,0-9.47,1.9A12.41,12.41,0,0,0,55,81.23a5.14,5.14,0,0,1-3.79-2.13,1.93,1.93,0,0,0-.23-1.18.91.91,0,0,1-.24-.71,10.85,10.85,0,0,1,.71-3.79A3.59,3.59,0,0,1,54,71.05l1.9-.94,35.51.47A3,3,0,0,1,92.83,73.18Zm76.71-21.3a14.4,14.4,0,0,0,.47,3.55q0,3.8-3.08,3.31a10.31,10.31,0,0,0-5.44.48h-6.63c-3.16,0-6.39.16-9.71.47a76.92,76.92,0,0,0-9.23,1.42,31.82,31.82,0,0,0-4-.71,5,5,0,0,1-3.55-2.13,4.1,4.1,0,0,0-.23-1.18,3.61,3.61,0,0,1-.24-1.19,9,9,0,0,1,.71-3.55,5.75,5.75,0,0,1,2.13-2.6l2.37-1,34.09.47C168.75,49.91,169.54,50.77,169.54,51.88Zm0,21.3a5.86,5.86,0,0,0,.47,2.61q0,4.26-3.08,3.79a10.32,10.32,0,0,0-5.44.47h-6.63c-3.16,0-6.39.16-9.71.47a41.69,41.69,0,0,0-9.23,1.9,12.19,12.19,0,0,0-4-1.19,5,5,0,0,1-3.55-2.13,1.93,1.93,0,0,0-.23-1.18.91.91,0,0,1-.24-.71,10.85,10.85,0,0,1,.71-3.79,3.6,3.6,0,0,1,2.13-2.37l2.37-.94,34.09.47C168.75,71.22,169.54,72.08,169.54,73.18Z"/><path class="cls-1" d="M295.49,7.13a27.37,27.37,0,0,1-.48,5,16.54,16.54,0,0,1-1.42,4.5l-6.15,16.57a35.58,35.58,0,0,0,5.44,1.66,26.54,26.54,0,0,0,5.92.71h15L358,34.59a14.3,14.3,0,0,1,1.42,2.94,10,10,0,0,1,.47,3.12,20,20,0,0,1-.23,3.13,12.68,12.68,0,0,1-.71,2.56,14.8,14.8,0,0,1-4.5,5.83,13.36,13.36,0,0,1-5,2.31,76.78,76.78,0,0,0-9.24-1.42c-3.31-.31-6.55-.47-9.7-.47h-8V53l.47.44-2.09,35.87,44.23.45a7.18,7.18,0,0,1,1.19,2.47,10.41,10.41,0,0,1,.23,2,7.4,7.4,0,0,1-.23,1.8c-.17.6-.4,1.35-.72,2.24a10.65,10.65,0,0,1-4.49,3.81,13.6,13.6,0,0,1-5.45,1.12c-2.21,0-4.73-.07-7.57-.24s-5.53-.23-8.05-.23H320.31q-2.16,12.31-5.14,25.33A59.3,59.3,0,0,1,303.54,152a68.62,68.62,0,0,1-17.76,18.47,65.09,65.09,0,0,1-21.54,9.94,26.41,26.41,0,0,1-14-6.39A83.4,83.4,0,0,1,238.67,162a8.21,8.21,0,0,1-.71-1.89,5.8,5.8,0,0,1-.24-1.42v-3.79a5.46,5.46,0,0,1,3.08-1h7.34a7.68,7.68,0,0,0,2.37-.47,17.16,17.16,0,0,0,2.36-.95,66.65,66.65,0,0,0,28.18-7.57q13.95-7.11,20.12-23.2,1.43-4.26,2.84-9.24a55.52,55.52,0,0,0,1.89-9.23H254.29a22.25,22.25,0,0,1-5.21-.69,5.07,5.07,0,0,1-3.78-3.15,1.84,1.84,0,0,0-.24-1,1.23,1.23,0,0,1-.24-.7,4.79,4.79,0,0,1,2.13-4A37.29,37.29,0,0,1,251,91a15.17,15.17,0,0,1,3.79-.87c1.25-.12,2.52-.18,3.78-.18h14.21l34.57-.86V79.24a130.66,130.66,0,0,0-.72-13.11q-.71-7.08-1.65-13.54a86.82,86.82,0,0,0-11.37.69q-5.2.7-10.41,1.74l-4.26-1c-2.54,2.54-5,5.1-7.34,7.64a31,31,0,0,1-9.24,6.59h-5.68a19.48,19.48,0,0,1-9-4.26c-2.84-2.29-5.52-4.53-8-6.69l-.48-.41a10.66,10.66,0,0,1,.71-3.86c.48-1.21,1.66-1.82,3.55-1.82q16.57-1,27.7-17.08T290.75,4.76h3.79a1.42,1.42,0,0,1,.95.48ZM357.28,139a36.43,36.43,0,0,0,21.54,6.87,7.67,7.67,0,0,1,1.9-.48,5.5,5.5,0,0,1,.94,2.13,10.57,10.57,0,0,1,.48,2.61,11.18,11.18,0,0,1-.48,2.13,15.41,15.41,0,0,1-.94,2.6A24.93,24.93,0,0,1,369.83,165a130,130,0,0,1-13.74,5.45,20.69,20.69,0,0,1-9.94-11.84A89.64,89.64,0,0,0,339.52,144a13.92,13.92,0,0,0-3.55-7.34c-2.05-2.37-3.08-4.65-3.08-6.86a7.73,7.73,0,0,1,.48-2.37,11.43,11.43,0,0,1,1.42-2.84h3.31Q347.57,132.14,357.28,139Zm88.31-94.94h.47a20.2,20.2,0,0,0,5.92-.94,20.12,20.12,0,0,1,5.92-.95h3.78v67.24c0,3.78-.16,7.42-.47,10.89a15.08,15.08,0,0,1-4.5,3.07,11.86,11.86,0,0,1-5,1.19h-39.3q-7.57,0-15.39.71a38.7,38.7,0,0,0-14.91,4.5c-1.27-.31-2.69-.71-4.26-1.19s-2.53-1.81-2.84-4q.46-10.83,1.18-21.66t.71-21.19V68.06c-.32-2.5-.71-5.25-1.18-8.23a54.8,54.8,0,0,1-.71-8.72v-3a3.16,3.16,0,0,1,.47-2.12,6.16,6.16,0,0,1,2.84-2.82,8.4,8.4,0,0,1,3.79-.95h9.94Zm-6.16,15.16h-8.05q-9,0-17.75.23t-17.29,1.17l-1.89.94L393,111.3l1.89,1.42,12.79-1q6.62-.47,13.25-.47a108.1,108.1,0,0,1,12.31.71q6.15.7,11.37,1.66l1.89-1V59.22Z"/></g></g></svg>